<svg id="Layer_1" enable-background="new 0 0 512 512" height="512" viewBox="0 0 512 512" width="512" xmlns="http://www.w3.org/2000/svg"><path d="m512 291.354c0-79.124-42.876-152.375-111.898-191.17-26.384-14.819-54.89-23.801-84.85-26.795.008-.045.019-.09.027-.135 3.396-19.647 4.463-45.682-9.673-58.088-14.816-13.333-43.254-7.528-58.891-2.883-17.564 5.229-34.229 18.32-48.202 37.873l-15.132 21.289-19.399-6.424 10.506-11.839c4.248-4.778 6.377-10.945 5.996-17.364-.381-6.413-3.222-12.278-7.994-16.512l-13.243-11.766c-4.768-4.247-10.927-6.373-17.332-5.995-6.398.382-12.257 3.218-16.501 7.992l-29.31 33.009-18.171-6.017c-21.062-6.966-39.411 2.587-46.596 10.698l-11.766 13.235c-5.468 6.157-7.666 12.28-6.531 18.202 1.238 6.463 6.242 11.819 15.22 16.334l101.188 52.325-31.701 44.599-47.257-16.632c-17.015-6-32.212 1.951-38.293 8.776l-6.432 7.263c-4.64 5.196-6.494 10.45-5.509 15.614 1.519 7.973 9.342 12.209 12.45 13.782l44.198 28.889c-10.188 17.855-5.242 34.041 4.36 42.283 3.346 2.872 7.799 5.188 12.979 6.153.84 26.083 6.207 51.472 16.017 75.569 1.194 2.933 4.02 4.71 7.002 4.71.949 0 1.913-.18 2.846-.559 3.865-1.574 5.724-5.983 4.15-9.848-9.211-22.628-14.218-46.486-14.932-71.002 4.006-1.317 8.177-3.498 12.412-6.765l35.011 40.903c1.943 2.935 7.041 10.148 15.096 10.731.352.025.702.038 1.052.038 4.866 0 9.514-2.464 13.825-7.328l6.46-7.268c6.084-6.864 12.222-22.946 4.196-39.124l-22.728-45.754 40.42-36.648 24.642 36.47c1.46 2.161 3.843 3.326 6.269 3.326 1.456 0 2.927-.42 4.224-1.296 3.458-2.337 4.368-7.034 2.031-10.493l-25.854-38.264 45.922-41.636 11.48 24.581c.048.108.097.215.15.321l33.428 71.577c6.497 13.889.96 26.967-2.743 31.127l-11.775 13.243c-2.578 2.913-4.28 3.654-4.891 3.577-.866-.061-3.214-1.505-6.573-6.601l-20.844-30.835c-2.336-3.457-7.035-4.365-10.493-2.029-3.458 2.337-4.366 7.035-2.029 10.494l20.795 30.762c5.585 8.473 11.496 12.819 18.072 13.286.387.028.771.042 1.156.042 5.604-.001 11.023-2.914 16.113-8.665l11.761-13.228c7.219-8.111 14.544-27.475 5.142-47.573l-8.103-17.349 29.327-33.027c8.755-9.888 7.857-25.077-2.008-33.864l-13.242-11.768c-4.774-4.253-10.932-6.389-17.34-6.004-6.404.38-12.264 3.225-16.491 7.999l-10.522 11.839-8.653-18.529 19.363-17.556c.007-.006.013-.012.02-.018 12.864-11.747 22.171-24.486 27.512-37.466 17.676 1.522 34.815 5.286 51.268 11.234-5.329 5.893-8.372 12.158-9.205 18.953-2.124 17.315 10.788 32.654 23.275 47.489 17.164 20.392 24.329 31.209 15.904 42.282-19.84 26.071-26.687 46.691-20.352 61.287 3.13 7.211 10.94 16.22 30.389 18.196.629.063 1.299.123 2.005.187 14.137 1.285 26.973 3.834 28.741 20.684 1.731 16.531 17.42 28.398 38.152 28.857.372.008.745.013 1.119.013 6.984 0 14.149-1.449 20.434-4.494-4.614 22.277-12.876 43.23-24.118 62.218-21.101-19.23-47.301-28.632-73.179-25.954-21.681 2.238-39.633 12.698-49.257 28.705-10.116 16.861-27.211 22.976-39.77 25.137-21.578 3.711-42.298-1.922-48.954-7.412-21.109-17.449-46.316-22.35-65.781-12.791-15.952 7.834-25.969 24.06-28.568 45.57-15.758-13.147-29.692-28.785-41.194-46.624-2.261-3.508-6.937-4.517-10.447-2.257-3.507 2.262-4.518 6.939-2.256 10.447 40.624 63.008 109.388 100.625 183.947 100.625 58.484 0 113.465-22.796 154.814-64.19 37.463-37.502 59.675-86.204 63.516-138.564.001-.004.001-.007.002-.01.062-.414.08-.824.074-1.23.342-5.022.525-10.072.525-15.152zm-217.497-131.447c1.555-1.756 3.714-2.801 6.079-2.942 2.364-.145 4.639.642 6.398 2.209l13.242 11.768c3.653 3.254 3.985 8.886.745 12.545l-24.985 28.137-16.344-34.994zm-157.79-140.331c1.561-1.756 3.728-2.802 6.101-2.943 2.371-.158 4.634.638 6.387 2.199l13.254 11.778c1.755 1.557 2.8 3.725 2.941 6.104.142 2.386-.641 4.668-2.209 6.432l-14.822 16.704-36.641-12.133zm-101.586 61.957c-6.612-3.325-7.197-5.479-7.242-5.713-.115-.598.386-2.392 2.985-5.318l11.773-13.243c3.685-4.159 15.999-11.193 30.542-6.38l74.85 24.785c.126.048.254.086.382.127l25.803 8.544-35.927 50.545zm-15.251 125.881c-3.323-1.668-4.404-2.856-4.706-3.271.127-.362.547-1.263 1.891-2.77l6.437-7.269c2.613-2.932 11.773-8.155 21.972-4.557l43.169 15.191-23.083 32.475-44.935-29.37c-.241-.158-.49-.301-.745-.429zm143.964 87.413c4.797 9.67.656 19.416-1.962 22.37l-6.461 7.269c-1.325 1.495-2.17 2.016-2.516 2.185-.449-.255-1.751-1.194-3.782-4.291-.176-.268-.369-.525-.577-.768l-35.519-41.496 29.992-27.193zm109.375-180.376-23.291 21.117c-.13.111-.257.225-.378.343l-156.066 141.5c-4.184 3.445-8.473 5.417-12.424 5.874-.086.007-.172.013-.257.023-3.649.363-7.001-.57-9.692-2.88-4.926-4.228-7.061-13.213-.804-23.809l76.415-107.506c.057-.077.112-.154.166-.234l63.936-89.951c11.99-16.777 25.894-27.898 40.203-32.157 20.81-6.185 37.853-6.326 44.542-.307 6.675 5.858 8.521 22.8 4.817 44.226-2.516 14.696-11.911 29.828-27.167 43.761zm198.213 207.755c-10.884-.241-22.435-5.581-23.455-15.322-3.209-30.599-30.676-33.096-42.404-34.162-.663-.061-1.293-.118-1.866-.175-6.705-.68-15.277-2.825-18.032-9.175-3.827-8.816 2.921-25.626 18.515-46.117 16.673-21.913-1.648-43.678-16.369-61.167-10.402-12.357-21.158-25.136-19.836-35.915.604-4.925 3.726-9.712 9.489-14.554 5.154 2.356 10.233 4.936 15.229 7.742 64.265 36.12 104.187 104.323 104.187 177.992 0 4.951-.187 9.859-.535 14.723-2.202 12.246-14.722 16.365-24.923 16.13zm-178.358 173.178c-42.062 0-82.134-12.887-115.609-36.088.134-20.956 7.608-36.519 20.79-42.992 14.06-6.908 33.023-2.739 49.494 10.878 12.106 9.987 38.392 14.565 61.139 10.654 15.677-2.697 37.106-10.482 50.165-32.25 7.043-11.713 21.194-19.734 37.852-21.453 22.298-2.308 45.073 6.344 63.312 23.836-36.874 52.805-98.042 87.415-167.143 87.415z"/><path d="m248.269 43.546c-4.159.349-7.248 4.002-6.9 8.161.349 4.16 3.999 7.258 8.162 6.9 7.583-.615 17.629 8.602 18.553 17.04.424 3.87 3.698 6.736 7.503 6.736.275 0 .553-.015.832-.046 4.149-.454 7.144-4.186 6.69-8.334-1.828-16.692-19.08-31.793-34.84-30.457z"/></svg>